<mxfile host="app.diagrams.net" agent="Mozilla/5.0 (Macintosh; Intel Mac OS X 10_15_7) AppleWebKit/537.36 (KHTML, like Gecko) Chrome/136.0.0.0 Safari/537.36" version="27.0.3">
  <diagram name="第 1 页" id="TMwYBjuD1JmSVemQPXjO">
    <mxGraphModel dx="2066" dy="1126" grid="1" gridSize="10" guides="1" tooltips="1" connect="1" arrows="1" fold="1" page="1" pageScale="1" pageWidth="945" pageHeight="462" math="0" shadow="0">
      <root>
        <mxCell id="0" />
        <mxCell id="1" parent="0" />
        <mxCell id="6IL1K23eYMU1uR2u9n9G-1" value="A&lt;div style=&quot;font-size: 16px;&quot;&gt;L&lt;/div&gt;&lt;div style=&quot;font-size: 16px;&quot;&gt;U&lt;/div&gt;" style="shape=trapezoid;perimeter=trapezoidPerimeter;whiteSpace=wrap;html=1;fixedSize=1;direction=south;fontSize=16;fontStyle=1;movable=1;resizable=1;rotatable=1;deletable=1;editable=1;locked=0;connectable=1;" vertex="1" parent="1">
          <mxGeometry x="949" y="397.5" width="60" height="120" as="geometry" />
        </mxCell>
        <mxCell id="6IL1K23eYMU1uR2u9n9G-2" value="" style="rounded=0;whiteSpace=wrap;html=1;fontSize=16;fillColor=#e1d5e7;strokeColor=#9673a6;container=0;fontStyle=1;movable=1;resizable=1;rotatable=1;deletable=1;editable=1;locked=0;connectable=1;" vertex="1" parent="1">
          <mxGeometry x="641.5" y="100" width="80" height="610" as="geometry" />
        </mxCell>
        <mxCell id="6IL1K23eYMU1uR2u9n9G-3" value="ID/EX" style="text;html=1;align=center;verticalAlign=middle;resizable=1;points=[];autosize=1;strokeColor=none;fillColor=none;fontSize=16;container=0;fontStyle=1;movable=1;rotatable=1;deletable=1;editable=1;locked=0;connectable=1;" vertex="1" parent="1">
          <mxGeometry x="645" y="70" width="70" height="30" as="geometry" />
        </mxCell>
        <mxCell id="6IL1K23eYMU1uR2u9n9G-4" value="imm" style="rounded=0;whiteSpace=wrap;html=1;fontSize=16;fillColor=#d5e8d4;strokeColor=#82b366;container=0;fontStyle=1;movable=1;resizable=1;rotatable=1;deletable=1;editable=1;locked=0;connectable=1;" vertex="1" parent="1">
          <mxGeometry x="641.5" y="270" width="80" height="30" as="geometry" />
        </mxCell>
        <mxCell id="6IL1K23eYMU1uR2u9n9G-5" style="edgeStyle=orthogonalEdgeStyle;rounded=0;orthogonalLoop=1;jettySize=auto;html=1;exitX=1;exitY=0.5;exitDx=0;exitDy=0;entryX=0.75;entryY=1;entryDx=0;entryDy=0;movable=1;resizable=1;rotatable=1;deletable=1;editable=1;locked=0;connectable=1;" edge="1" parent="1" source="6IL1K23eYMU1uR2u9n9G-6" target="6IL1K23eYMU1uR2u9n9G-27">
          <mxGeometry relative="1" as="geometry" />
        </mxCell>
        <mxCell id="6IL1K23eYMU1uR2u9n9G-6" value="Rs1" style="rounded=0;whiteSpace=wrap;html=1;fontSize=16;fillColor=#d5e8d4;strokeColor=#82b366;container=0;fontStyle=1;movable=1;resizable=1;rotatable=1;deletable=1;editable=1;locked=0;connectable=1;" vertex="1" parent="1">
          <mxGeometry x="640" y="390" width="80" height="30" as="geometry" />
        </mxCell>
        <mxCell id="6IL1K23eYMU1uR2u9n9G-7" style="edgeStyle=orthogonalEdgeStyle;rounded=0;orthogonalLoop=1;jettySize=auto;html=1;exitX=1;exitY=0.5;exitDx=0;exitDy=0;entryX=0.25;entryY=1;entryDx=0;entryDy=0;movable=1;resizable=1;rotatable=1;deletable=1;editable=1;locked=0;connectable=1;" edge="1" parent="1" source="6IL1K23eYMU1uR2u9n9G-8" target="6IL1K23eYMU1uR2u9n9G-27">
          <mxGeometry relative="1" as="geometry" />
        </mxCell>
        <mxCell id="6IL1K23eYMU1uR2u9n9G-8" value="PC" style="rounded=0;whiteSpace=wrap;html=1;fontSize=16;fillColor=#d5e8d4;strokeColor=#82b366;container=0;fontStyle=1;movable=1;resizable=1;rotatable=1;deletable=1;editable=1;locked=0;connectable=1;" vertex="1" parent="1">
          <mxGeometry x="641.5" y="325" width="80" height="30" as="geometry" />
        </mxCell>
        <mxCell id="6IL1K23eYMU1uR2u9n9G-9" style="edgeStyle=orthogonalEdgeStyle;rounded=0;orthogonalLoop=1;jettySize=auto;html=1;exitX=1;exitY=0.5;exitDx=0;exitDy=0;entryX=0;entryY=0.5;entryDx=0;entryDy=0;strokeWidth=3;strokeColor=#FF0000;dashed=1;dashPattern=1 4;movable=1;resizable=1;rotatable=1;deletable=1;editable=1;locked=0;connectable=1;" edge="1" parent="1" source="6IL1K23eYMU1uR2u9n9G-10" target="6IL1K23eYMU1uR2u9n9G-19">
          <mxGeometry relative="1" as="geometry" />
        </mxCell>
        <mxCell id="6IL1K23eYMU1uR2u9n9G-10" value="&lt;span style=&quot;font-size: 16px;&quot;&gt;&lt;font style=&quot;font-size: 16px;&quot;&gt;MemWe&lt;/font&gt;&lt;/span&gt;" style="rounded=0;whiteSpace=wrap;html=1;fillColor=#e51400;strokeColor=#B20000;fontColor=#ffffff;fontSize=16;fontStyle=1;movable=1;resizable=1;rotatable=1;deletable=1;editable=1;locked=0;connectable=1;" vertex="1" parent="1">
          <mxGeometry x="642.5" y="110" width="80" height="30" as="geometry" />
        </mxCell>
        <mxCell id="6IL1K23eYMU1uR2u9n9G-11" style="edgeStyle=orthogonalEdgeStyle;rounded=0;orthogonalLoop=1;jettySize=auto;html=1;exitX=1;exitY=0.5;exitDx=0;exitDy=0;entryX=0;entryY=0.5;entryDx=0;entryDy=0;strokeWidth=3;strokeColor=#FF0000;dashed=1;dashPattern=1 4;movable=1;resizable=1;rotatable=1;deletable=1;editable=1;locked=0;connectable=1;" edge="1" parent="1" source="6IL1K23eYMU1uR2u9n9G-12" target="6IL1K23eYMU1uR2u9n9G-20">
          <mxGeometry relative="1" as="geometry" />
        </mxCell>
        <mxCell id="6IL1K23eYMU1uR2u9n9G-12" value="MemtoReg" style="rounded=0;whiteSpace=wrap;html=1;fillColor=#e51400;strokeColor=#B20000;fontColor=#ffffff;fontSize=16;fontStyle=1;movable=1;resizable=1;rotatable=1;deletable=1;editable=1;locked=0;connectable=1;" vertex="1" parent="1">
          <mxGeometry x="641.5" y="140" width="80" height="30" as="geometry" />
        </mxCell>
        <mxCell id="6IL1K23eYMU1uR2u9n9G-13" style="edgeStyle=orthogonalEdgeStyle;rounded=0;orthogonalLoop=1;jettySize=auto;html=1;exitX=1;exitY=0.5;exitDx=0;exitDy=0;entryX=0;entryY=0.5;entryDx=0;entryDy=0;dashed=1;dashPattern=1 2;strokeWidth=3;strokeColor=#FF0000;movable=1;resizable=1;rotatable=1;deletable=1;editable=1;locked=0;connectable=1;" edge="1" parent="1" source="6IL1K23eYMU1uR2u9n9G-14" target="6IL1K23eYMU1uR2u9n9G-1">
          <mxGeometry relative="1" as="geometry" />
        </mxCell>
        <mxCell id="6IL1K23eYMU1uR2u9n9G-14" value="&lt;span style=&quot;font-size: 16px;&quot;&gt;&lt;font style=&quot;font-size: 16px;&quot;&gt;AluOp&lt;/font&gt;&lt;/span&gt;" style="rounded=0;whiteSpace=wrap;html=1;fillColor=#e51400;strokeColor=#B20000;fontColor=#ffffff;fontSize=16;fontStyle=1;movable=1;resizable=1;rotatable=1;deletable=1;editable=1;locked=0;connectable=1;" vertex="1" parent="1">
          <mxGeometry x="641.5" y="170" width="80" height="30" as="geometry" />
        </mxCell>
        <mxCell id="6IL1K23eYMU1uR2u9n9G-15" value="" style="rounded=0;whiteSpace=wrap;html=1;fontSize=16;fillColor=#e1d5e7;strokeColor=#9673a6;container=0;fontStyle=1;movable=1;resizable=1;rotatable=1;deletable=1;editable=1;locked=0;connectable=1;" vertex="1" parent="1">
          <mxGeometry x="1145" y="100" width="80" height="610" as="geometry" />
        </mxCell>
        <mxCell id="6IL1K23eYMU1uR2u9n9G-16" value="EX/MEM" style="text;html=1;align=center;verticalAlign=middle;resizable=1;points=[];autosize=1;strokeColor=none;fillColor=none;fontSize=16;container=0;fontStyle=1;movable=1;rotatable=1;deletable=1;editable=1;locked=0;connectable=1;" vertex="1" parent="1">
          <mxGeometry x="1140" y="70" width="90" height="30" as="geometry" />
        </mxCell>
        <mxCell id="6IL1K23eYMU1uR2u9n9G-17" value="Rs2" style="rounded=0;whiteSpace=wrap;html=1;fontSize=16;fillColor=#d5e8d4;strokeColor=#82b366;container=0;fontStyle=1;movable=1;resizable=1;rotatable=1;deletable=1;editable=1;locked=0;connectable=1;" vertex="1" parent="1">
          <mxGeometry x="1145" y="476.5" width="80" height="30" as="geometry" />
        </mxCell>
        <mxCell id="6IL1K23eYMU1uR2u9n9G-18" value="Result" style="rounded=0;whiteSpace=wrap;html=1;fontSize=16;fillColor=#d5e8d4;strokeColor=#82b366;container=0;fontStyle=1;movable=1;resizable=1;rotatable=1;deletable=1;editable=1;locked=0;connectable=1;" vertex="1" parent="1">
          <mxGeometry x="1145" y="442.5" width="80" height="30" as="geometry" />
        </mxCell>
        <mxCell id="6IL1K23eYMU1uR2u9n9G-19" value="&lt;span style=&quot;font-size: 16px;&quot;&gt;&lt;font style=&quot;font-size: 16px;&quot;&gt;MemWe&lt;/font&gt;&lt;/span&gt;" style="rounded=0;whiteSpace=wrap;html=1;fillColor=#e51400;strokeColor=#B20000;fontColor=#ffffff;fontSize=16;fontStyle=1;movable=1;resizable=1;rotatable=1;deletable=1;editable=1;locked=0;connectable=1;" vertex="1" parent="1">
          <mxGeometry x="1145" y="110" width="80" height="30" as="geometry" />
        </mxCell>
        <mxCell id="6IL1K23eYMU1uR2u9n9G-20" value="&lt;span style=&quot;font-size: 16px;&quot;&gt;&lt;font style=&quot;font-size: 16px;&quot;&gt;MemtoReg&lt;/font&gt;&lt;/span&gt;" style="rounded=0;whiteSpace=wrap;html=1;fillColor=#e51400;strokeColor=#B20000;fontColor=#ffffff;fontSize=16;fontStyle=1;movable=1;resizable=1;rotatable=1;deletable=1;editable=1;locked=0;connectable=1;" vertex="1" parent="1">
          <mxGeometry x="1145" y="141" width="80" height="30" as="geometry" />
        </mxCell>
        <mxCell id="6IL1K23eYMU1uR2u9n9G-21" value="&lt;span style=&quot;font-size: 16px;&quot;&gt;&lt;font style=&quot;font-size: 16px;&quot;&gt;....&lt;/font&gt;&lt;/span&gt;" style="rounded=0;whiteSpace=wrap;html=1;fillColor=#e51400;strokeColor=#B20000;fontColor=#ffffff;fontSize=16;fontStyle=1;movable=1;resizable=1;rotatable=1;deletable=1;editable=1;locked=0;connectable=1;" vertex="1" parent="1">
          <mxGeometry x="1145" y="170" width="80" height="30" as="geometry" />
        </mxCell>
        <mxCell id="6IL1K23eYMU1uR2u9n9G-22" value="CSRs_OUT" style="rounded=0;whiteSpace=wrap;html=1;fontSize=16;fillColor=#d5e8d4;strokeColor=#82b366;container=0;fontStyle=1;movable=1;resizable=1;rotatable=1;deletable=1;editable=1;locked=0;connectable=1;" vertex="1" parent="1">
          <mxGeometry x="641" y="470.5" width="80" height="30" as="geometry" />
        </mxCell>
        <mxCell id="6IL1K23eYMU1uR2u9n9G-23" style="edgeStyle=orthogonalEdgeStyle;rounded=0;orthogonalLoop=1;jettySize=auto;html=1;exitX=1;exitY=0.5;exitDx=0;exitDy=0;entryX=0.75;entryY=1;entryDx=0;entryDy=0;movable=1;resizable=1;rotatable=1;deletable=1;editable=1;locked=0;connectable=1;" edge="1" parent="1" source="6IL1K23eYMU1uR2u9n9G-25" target="6IL1K23eYMU1uR2u9n9G-32">
          <mxGeometry relative="1" as="geometry" />
        </mxCell>
        <mxCell id="6IL1K23eYMU1uR2u9n9G-25" value="Rs2" style="rounded=0;whiteSpace=wrap;html=1;fontSize=16;fillColor=#d5e8d4;strokeColor=#82b366;container=0;fontStyle=1;movable=1;resizable=1;rotatable=1;deletable=1;editable=1;locked=0;connectable=1;" vertex="1" parent="1">
          <mxGeometry x="641" y="533" width="80" height="30" as="geometry" />
        </mxCell>
        <mxCell id="6IL1K23eYMU1uR2u9n9G-26" style="edgeStyle=orthogonalEdgeStyle;rounded=0;orthogonalLoop=1;jettySize=auto;html=1;exitX=0.5;exitY=0;exitDx=0;exitDy=0;entryX=0.25;entryY=1;entryDx=0;entryDy=0;movable=1;resizable=1;rotatable=1;deletable=1;editable=1;locked=0;connectable=1;" edge="1" parent="1" source="6IL1K23eYMU1uR2u9n9G-27" target="6IL1K23eYMU1uR2u9n9G-1">
          <mxGeometry relative="1" as="geometry" />
        </mxCell>
        <mxCell id="6IL1K23eYMU1uR2u9n9G-27" value="M&lt;div&gt;U&lt;/div&gt;&lt;div&gt;X&lt;/div&gt;" style="shape=trapezoid;perimeter=trapezoidPerimeter;whiteSpace=wrap;html=1;fixedSize=1;direction=south;fontSize=16;fontStyle=1;movable=1;resizable=1;rotatable=1;deletable=1;editable=1;locked=0;connectable=1;" vertex="1" parent="1">
          <mxGeometry x="829" y="315" width="40" height="115" as="geometry" />
        </mxCell>
        <mxCell id="6IL1K23eYMU1uR2u9n9G-28" style="edgeStyle=orthogonalEdgeStyle;rounded=0;orthogonalLoop=1;jettySize=auto;html=1;exitX=1;exitY=0.5;exitDx=0;exitDy=0;entryX=0;entryY=0.5;entryDx=0;entryDy=0;dashed=1;dashPattern=1 2;strokeWidth=3;strokeColor=#FF0000;movable=1;resizable=1;rotatable=1;deletable=1;editable=1;locked=0;connectable=1;" edge="1" parent="1" source="6IL1K23eYMU1uR2u9n9G-29" target="6IL1K23eYMU1uR2u9n9G-27">
          <mxGeometry relative="1" as="geometry" />
        </mxCell>
        <mxCell id="6IL1K23eYMU1uR2u9n9G-29" value="Asrc" style="rounded=0;whiteSpace=wrap;html=1;fillColor=#e51400;strokeColor=#B20000;fontColor=#ffffff;fontSize=16;fontStyle=1;movable=1;resizable=1;rotatable=1;deletable=1;editable=1;locked=0;connectable=1;" vertex="1" parent="1">
          <mxGeometry x="641.5" y="200" width="80" height="30" as="geometry" />
        </mxCell>
        <mxCell id="6IL1K23eYMU1uR2u9n9G-30" value="BSrc" style="rounded=0;whiteSpace=wrap;html=1;fillColor=#e51400;strokeColor=#B20000;fontColor=#ffffff;fontSize=16;fontStyle=1;movable=1;resizable=1;rotatable=1;deletable=1;editable=1;locked=0;connectable=1;" vertex="1" parent="1">
          <mxGeometry x="641.5" y="230" width="80" height="30" as="geometry" />
        </mxCell>
        <mxCell id="6IL1K23eYMU1uR2u9n9G-31" style="edgeStyle=orthogonalEdgeStyle;rounded=0;orthogonalLoop=1;jettySize=auto;html=1;exitX=0.5;exitY=0;exitDx=0;exitDy=0;entryX=0.5;entryY=1;entryDx=0;entryDy=0;movable=1;resizable=1;rotatable=1;deletable=1;editable=1;locked=0;connectable=1;" edge="1" parent="1" source="6IL1K23eYMU1uR2u9n9G-32" target="6IL1K23eYMU1uR2u9n9G-1">
          <mxGeometry relative="1" as="geometry" />
        </mxCell>
        <mxCell id="6IL1K23eYMU1uR2u9n9G-32" value="M&lt;div&gt;U&lt;/div&gt;&lt;div&gt;X&lt;/div&gt;" style="shape=trapezoid;perimeter=trapezoidPerimeter;whiteSpace=wrap;html=1;fixedSize=1;direction=south;fontSize=16;fontStyle=1;points=[[0,0,0,0,0],[0,0.13,0,0,0],[0,0.37,0,0,0],[0,0.5,0,0,0],[0,0.63,0,0,0],[0,0.88,0,0,0],[0,1,0,0,0],[0.25,0,0,0,0],[0.25,1,0,0,0],[0.5,0,0,0,0],[0.75,0,0,0,0],[0.75,1,0,0,0],[1,0,0,0,0],[1,0.25,0,0,0],[1,0.5,0,0,0],[1,0.75,0,0,0],[1,1,0,0,0]];movable=1;resizable=1;rotatable=1;deletable=1;editable=1;locked=0;connectable=1;" vertex="1" parent="1">
          <mxGeometry x="838.5" y="430" width="60" height="153" as="geometry" />
        </mxCell>
        <mxCell id="6IL1K23eYMU1uR2u9n9G-33" value="&quot;4&quot;" style="rounded=0;whiteSpace=wrap;html=1;fontSize=16;fillColor=#d5e8d4;strokeColor=#82b366;container=0;fontStyle=1;movable=1;resizable=1;rotatable=1;deletable=1;editable=1;locked=0;connectable=1;" vertex="1" parent="1">
          <mxGeometry x="640" y="500.5" width="80" height="30" as="geometry" />
        </mxCell>
        <mxCell id="6IL1K23eYMU1uR2u9n9G-34" style="edgeStyle=orthogonalEdgeStyle;rounded=0;orthogonalLoop=1;jettySize=auto;html=1;exitX=1;exitY=0.5;exitDx=0;exitDy=0;entryX=0.25;entryY=1;entryDx=0;entryDy=0;entryPerimeter=0;movable=1;resizable=1;rotatable=1;deletable=1;editable=1;locked=0;connectable=1;" edge="1" parent="1" source="6IL1K23eYMU1uR2u9n9G-4" target="6IL1K23eYMU1uR2u9n9G-32">
          <mxGeometry relative="1" as="geometry" />
        </mxCell>
        <mxCell id="6IL1K23eYMU1uR2u9n9G-35" style="edgeStyle=orthogonalEdgeStyle;rounded=0;orthogonalLoop=1;jettySize=auto;html=1;exitX=1;exitY=0.5;exitDx=0;exitDy=0;entryX=0.639;entryY=0.942;entryDx=0;entryDy=0;entryPerimeter=0;movable=1;resizable=1;rotatable=1;deletable=1;editable=1;locked=0;connectable=1;" edge="1" parent="1" source="6IL1K23eYMU1uR2u9n9G-33" target="6IL1K23eYMU1uR2u9n9G-32">
          <mxGeometry relative="1" as="geometry" />
        </mxCell>
        <mxCell id="6IL1K23eYMU1uR2u9n9G-36" style="edgeStyle=orthogonalEdgeStyle;rounded=0;orthogonalLoop=1;jettySize=auto;html=1;exitX=1;exitY=0.5;exitDx=0;exitDy=0;entryX=0.482;entryY=0.969;entryDx=0;entryDy=0;entryPerimeter=0;movable=1;resizable=1;rotatable=1;deletable=1;editable=1;locked=0;connectable=1;" edge="1" parent="1" source="6IL1K23eYMU1uR2u9n9G-22" target="6IL1K23eYMU1uR2u9n9G-32">
          <mxGeometry relative="1" as="geometry" />
        </mxCell>
        <mxCell id="6IL1K23eYMU1uR2u9n9G-38" style="edgeStyle=orthogonalEdgeStyle;rounded=0;orthogonalLoop=1;jettySize=auto;html=1;exitX=0.5;exitY=0;exitDx=0;exitDy=0;movable=1;resizable=1;rotatable=1;deletable=1;editable=1;locked=0;connectable=1;entryX=0.081;entryY=0.517;entryDx=0;entryDy=0;entryPerimeter=0;" edge="1" parent="1" source="6IL1K23eYMU1uR2u9n9G-1" target="6IL1K23eYMU1uR2u9n9G-18">
          <mxGeometry relative="1" as="geometry">
            <mxPoint x="1101.5" y="458" as="targetPoint" />
          </mxGeometry>
        </mxCell>
        <mxCell id="6IL1K23eYMU1uR2u9n9G-41" value="AluOp" style="text;html=1;align=center;verticalAlign=middle;resizable=1;points=[];autosize=1;strokeColor=none;fillColor=none;fontColor=#ee1717;fontSize=16;fontStyle=1;movable=1;rotatable=1;deletable=1;editable=1;locked=0;connectable=1;" vertex="1" parent="1">
          <mxGeometry x="979" y="335" width="70" height="30" as="geometry" />
        </mxCell>
        <mxCell id="6IL1K23eYMU1uR2u9n9G-42" value="CSRs_OUT" style="rounded=0;whiteSpace=wrap;html=1;fontSize=16;fillColor=#d5e8d4;strokeColor=#82b366;container=0;fontStyle=1;movable=1;resizable=1;rotatable=1;deletable=1;editable=1;locked=0;connectable=1;" vertex="1" parent="1">
          <mxGeometry x="1145" y="506.5" width="80" height="30" as="geometry" />
        </mxCell>
        <mxCell id="6IL1K23eYMU1uR2u9n9G-46" style="edgeStyle=orthogonalEdgeStyle;rounded=0;orthogonalLoop=1;jettySize=auto;html=1;entryX=0.072;entryY=0.442;entryDx=0;entryDy=0;entryPerimeter=0;dashed=1;dashPattern=1 2;strokeColor=#FF0000;strokeWidth=3;align=center;verticalAlign=middle;fontFamily=Helvetica;fontSize=11;fontColor=default;labelBackgroundColor=default;resizable=1;endArrow=classic;" edge="1" parent="1" source="6IL1K23eYMU1uR2u9n9G-30" target="6IL1K23eYMU1uR2u9n9G-32">
          <mxGeometry relative="1" as="geometry" />
        </mxCell>
        <mxCell id="6IL1K23eYMU1uR2u9n9G-59" value="ex_dnpc == pc" style="rhombus;whiteSpace=wrap;html=1;fontStyle=1;fontSize=14;" vertex="1" parent="1">
          <mxGeometry x="750" y="583" width="129" height="80" as="geometry" />
        </mxCell>
        <mxCell id="6IL1K23eYMU1uR2u9n9G-60" value="" style="endArrow=classic;html=1;rounded=0;" edge="1" parent="1">
          <mxGeometry width="50" height="50" relative="1" as="geometry">
            <mxPoint x="879" y="623" as="sourcePoint" />
            <mxPoint x="960" y="623" as="targetPoint" />
          </mxGeometry>
        </mxCell>
        <mxCell id="6IL1K23eYMU1uR2u9n9G-64" style="edgeStyle=orthogonalEdgeStyle;rounded=0;orthogonalLoop=1;jettySize=auto;html=1;entryX=0.013;entryY=0.81;entryDx=0;entryDy=0;entryPerimeter=0;" edge="1" parent="1" source="6IL1K23eYMU1uR2u9n9G-61" target="6IL1K23eYMU1uR2u9n9G-15">
          <mxGeometry relative="1" as="geometry" />
        </mxCell>
        <mxCell id="6IL1K23eYMU1uR2u9n9G-65" value="&lt;span style=&quot;font-size: 14px;&quot;&gt;&lt;b&gt;ex_out_valid&lt;/b&gt;&lt;/span&gt;" style="edgeLabel;html=1;align=center;verticalAlign=middle;resizable=0;points=[];" vertex="1" connectable="0" parent="6IL1K23eYMU1uR2u9n9G-64">
          <mxGeometry x="-0.1314" y="-1" relative="1" as="geometry">
            <mxPoint x="-6" y="-1" as="offset" />
          </mxGeometry>
        </mxCell>
        <mxCell id="6IL1K23eYMU1uR2u9n9G-61" value="" style="shape=or;whiteSpace=wrap;html=1;" vertex="1" parent="1">
          <mxGeometry x="959" y="603" width="81" height="60" as="geometry" />
        </mxCell>
        <mxCell id="6IL1K23eYMU1uR2u9n9G-62" value="" style="endArrow=classic;html=1;rounded=0;" edge="1" parent="1">
          <mxGeometry width="50" height="50" relative="1" as="geometry">
            <mxPoint x="900" y="643" as="sourcePoint" />
            <mxPoint x="959" y="643" as="targetPoint" />
          </mxGeometry>
        </mxCell>
        <mxCell id="6IL1K23eYMU1uR2u9n9G-63" value="1" style="edgeLabel;html=1;align=center;verticalAlign=middle;resizable=0;points=[];fontSize=14;fontStyle=1" vertex="1" connectable="0" parent="6IL1K23eYMU1uR2u9n9G-62">
          <mxGeometry x="-0.1525" y="-1" relative="1" as="geometry">
            <mxPoint as="offset" />
          </mxGeometry>
        </mxCell>
        <mxCell id="6IL1K23eYMU1uR2u9n9G-70" value="" style="edgeStyle=orthogonalEdgeStyle;rounded=0;orthogonalLoop=1;jettySize=auto;html=1;entryX=1;entryY=0.5;entryDx=0;entryDy=0;" edge="1" parent="1" source="6IL1K23eYMU1uR2u9n9G-68" target="6IL1K23eYMU1uR2u9n9G-71">
          <mxGeometry relative="1" as="geometry">
            <mxPoint x="605" y="810" as="targetPoint" />
            <Array as="points">
              <mxPoint x="840" y="683" />
              <mxPoint x="840" y="770" />
            </Array>
          </mxGeometry>
        </mxCell>
        <mxCell id="6IL1K23eYMU1uR2u9n9G-72" value="Predict_wrong" style="edgeLabel;html=1;align=center;verticalAlign=middle;resizable=0;points=[];fontSize=13;fontStyle=1" vertex="1" connectable="0" parent="6IL1K23eYMU1uR2u9n9G-70">
          <mxGeometry x="-0.2286" relative="1" as="geometry">
            <mxPoint as="offset" />
          </mxGeometry>
        </mxCell>
        <mxCell id="6IL1K23eYMU1uR2u9n9G-68" value="" style="verticalLabelPosition=bottom;shadow=0;dashed=0;align=center;html=1;verticalAlign=top;shape=mxgraph.electrical.logic_gates.inverter_2;direction=west;" vertex="1" parent="1">
          <mxGeometry x="860" y="663" width="60" height="40" as="geometry" />
        </mxCell>
        <mxCell id="6IL1K23eYMU1uR2u9n9G-71" value="&lt;b&gt;&lt;font style=&quot;font-size: 14px;&quot;&gt;IF&lt;/font&gt;&lt;/b&gt;" style="rounded=0;whiteSpace=wrap;html=1;fillColor=#fff2cc;strokeColor=#d6b656;" vertex="1" parent="1">
          <mxGeometry x="640" y="740" width="120" height="60" as="geometry" />
        </mxCell>
        <mxCell id="6IL1K23eYMU1uR2u9n9G-73" style="edgeStyle=orthogonalEdgeStyle;rounded=0;orthogonalLoop=1;jettySize=auto;html=1;exitX=1;exitY=0.5;exitDx=0;exitDy=0;exitPerimeter=0;entryX=0;entryY=0.5;entryDx=0;entryDy=0;entryPerimeter=0;" edge="1" parent="1" source="6IL1K23eYMU1uR2u9n9G-61" target="6IL1K23eYMU1uR2u9n9G-68">
          <mxGeometry relative="1" as="geometry" />
        </mxCell>
      </root>
    </mxGraphModel>
  </diagram>
</mxfile>
